# xmcd
#
# Track frame offsets:
#	150
#	13022
#	24172
#	37086
#	48988
#	60907
#	73068
#	93423
#	103738
#	116627
#	127788
#	142363
#	161705
#	177090
#	190508
#	207358
#	221189
#	233814
#	248720
#	266336
#
# Disc length: 3770 seconds
#
# Revision: 0
# Processed by: cddbd v1.5.2PL0 Copyright (c) Steve Scherf et al.
# Submitted via: EasyCDDAExtractor 2010.6.0.0
#
DISCID=1a0eb814
DTITLE=Cats, The - The Cats 100 - CD3
DYEAR=1900
DGENRE=
TTITLE0=1965 Jukebox
TTITLE1=1965 A Fool Never Learns
TTITLE2=1967 Without Your Love
TTITLE3=1967 Hopeless Try
TTITLE4=1968 I Gotta Know What's Going On
TTITLE5=1967 How Could I Be So Blind
TTITLE6=1985 Hooray For Michael
TTITLE7=1968 I Like The Way
TTITLE8=1967 Remember The Good Times
TTITLE9=1965 I'm Ashamed To Tell
TTITLE10=1971 Country Woman
TTITLE11=1969 Somewhere Up There
TTITLE12=1969 Mandy My Dear
TTITLE13=1969 Today
TTITLE14=1985 She's So In Love
TTITLE15=1971 My Friend Joe
TTITLE16=1971 Dance Dance
TTITLE17=1976 Lookin' Back Over My Yesterday
TTITLE18=1979 Cindy
TTITLE19=19--Latin Lovers
EXTD=
EXTT0=
EXTT1=
EXTT2=
EXTT3=
EXTT4=
EXTT5=
EXTT6=
EXTT7=
EXTT8=
EXTT9=
EXTT10=
EXTT11=
EXTT12=
EXTT13=
EXTT14=
EXTT15=
EXTT16=
EXTT17=
EXTT18=
EXTT19=
PLAYORDER=
